HIERARCHY
ROOT hip
{
	OFFSET 0.000000 0.000000 0.000000 
	CHANNELS 6 Xposition Yposition Zposition Zrotation Yrotation Xrotation
	JOINT abdomen
	{
		OFFSET 0.000000 0.161626 -0.005715 
		CHANNELS 3 Zrotation Xrotation Yrotation
		JOINT chest
		{
			OFFSET 0.000000 0.091440 -0.003810 
			CHANNELS 3 Zrotation Xrotation Yrotation
			JOINT neck
			{
				OFFSET 0.000000 0.173355 -0.017145 
				CHANNELS 3 Zrotation Xrotation Yrotation
				JOINT head
				{
					OFFSET -0.001905 0.055245 0.009525 
					CHANNELS 3 Zrotation Xrotation Yrotation
					JOINT leftEye
					{
						OFFSET 0.032385 0.062865 0.062865 
						CHANNELS 3 Zrotation Xrotation Yrotation
						End Site
						{
							OFFSET 0.007812 0.000000 0.000000 
						}
					}
					JOINT rightEye
					{
						OFFSET -0.028575 0.062865 0.062865 
						CHANNELS 3 Zrotation Xrotation Yrotation
						End Site
						{
							OFFSET 0.007812 0.000000 0.000000 
						}
					}
				}
			}
			JOINT rCollar
			{
				OFFSET -0.020955 0.150495 -0.038100 
				CHANNELS 3 Zrotation Xrotation Yrotation
				JOINT rShldr
				{
					OFFSET -0.068580 -0.015240 0.011430 
					CHANNELS 3 Zrotation Xrotation Yrotation
					JOINT rForeArm
					{
						OFFSET -0.220111 -0.013371 0.003810 
						CHANNELS 3 Zrotation Xrotation Yrotation
						JOINT rHand
						{
							OFFSET -0.176468 0.006041 0.055245 
							CHANNELS 3 Zrotation Xrotation Yrotation
							JOINT rThumb1
							{
								OFFSET -0.009525 -0.003812 0.026670 
								CHANNELS 3 Zrotation Xrotation Yrotation
								JOINT rThumb2
								{
									OFFSET -0.026331 -0.004098 0.026670 
									CHANNELS 3 Zrotation Xrotation Yrotation
									End Site
									{
										OFFSET -0.013927 -0.009235 0.011176 
									}
								}
							}
							JOINT rIndex1
							{
								OFFSET -0.060621 0.007330 0.043815 
								CHANNELS 3 Zrotation Xrotation Yrotation
								JOINT rIndex2
								{
									OFFSET -0.019848 -0.006908 0.012230 
									CHANNELS 3 Zrotation Xrotation Yrotation
									End Site
									{
										OFFSET -0.012697 -0.001834 0.009102 
									}
								}
							}
							JOINT rMid1
							{
								OFFSET -0.064431 0.009235 0.026670 
								CHANNELS 3 Zrotation Xrotation Yrotation
								JOINT rMid2
								{
									OFFSET -0.024232 -0.004610 0.008318 
									CHANNELS 3 Zrotation Xrotation Yrotation
									End Site
									{
										OFFSET -0.019418 -0.002570 0.006542 
									}
								}
							}
							JOINT rRing1
							{
								OFFSET -0.068970 0.004271 0.011850 
								CHANNELS 3 Zrotation Xrotation Yrotation
								JOINT rRing2
								{
									OFFSET -0.020385 -0.006405 -0.000155 
									CHANNELS 3 Zrotation Xrotation Yrotation
									End Site
									{
										OFFSET -0.018269 -0.002297 0.001313 
									}
								}
							}
							JOINT rPinky1
							{
								OFFSET -0.064625 -0.000373 -0.003581 
								CHANNELS 3 Zrotation Xrotation Yrotation
								JOINT rPinky2
								{
									OFFSET -0.014276 -0.005058 -0.005476 
									CHANNELS 3 Zrotation Xrotation Yrotation
									End Site
									{
										OFFSET -0.013221 -0.004044 -0.004744 
									}
								}
							}
						}
					}
				}
			}
			JOINT lCollar
			{
				OFFSET 0.020955 0.150495 -0.038100 
				CHANNELS 3 Zrotation Xrotation Yrotation
				JOINT lShldr
				{
					OFFSET 0.068580 -0.015240 0.011430 
					CHANNELS 3 Zrotation Xrotation Yrotation
					JOINT lForeArm
					{
						OFFSET 0.220111 -0.013371 0.003810 
						CHANNELS 3 Zrotation Xrotation Yrotation
						JOINT lHand
						{
							OFFSET 0.176468 0.006041 0.055245 
							CHANNELS 3 Zrotation Xrotation Yrotation
							JOINT lThumb1
							{
								OFFSET 0.009525 -0.003812 0.026670 
								CHANNELS 3 Zrotation Xrotation Yrotation
								JOINT lThumb2
								{
									OFFSET 0.026331 -0.004098 0.026670 
									CHANNELS 3 Zrotation Xrotation Yrotation
									End Site
									{
										OFFSET 0.013927 -0.009235 0.011176 
									}
								}
							}
							JOINT lIndex1
							{
								OFFSET 0.060621 0.007330 0.043815 
								CHANNELS 3 Zrotation Xrotation Yrotation
								JOINT lIndex2
								{
									OFFSET 0.019848 -0.006908 0.012230 
									CHANNELS 3 Zrotation Xrotation Yrotation
									End Site
									{
										OFFSET 0.012697 -0.001834 0.009102 
									}
								}
							}
							JOINT lMid1
							{
								OFFSET 0.064431 0.009235 0.026670 
								CHANNELS 3 Zrotation Xrotation Yrotation
								JOINT lMid2
								{
									OFFSET 0.024232 -0.004610 0.008318 
									CHANNELS 3 Zrotation Xrotation Yrotation
									End Site
									{
										OFFSET 0.019418 -0.002570 0.006542 
									}
								}
							}
							JOINT lRing1
							{
								OFFSET 0.068970 0.004271 0.011850 
								CHANNELS 3 Zrotation Xrotation Yrotation
								JOINT lRing2
								{
									OFFSET 0.020385 -0.006405 -0.000155 
									CHANNELS 3 Zrotation Xrotation Yrotation
									End Site
									{
										OFFSET 0.018269 -0.002297 0.001313 
									}
								}
							}
							JOINT lPinky1
							{
								OFFSET 0.064625 -0.000373 -0.003581 
								CHANNELS 3 Zrotation Xrotation Yrotation
								JOINT lPinky2
								{
									OFFSET 0.014276 -0.005058 -0.005476 
									CHANNELS 3 Zrotation Xrotation Yrotation
									End Site
									{
										OFFSET 0.013221 -0.004044 -0.004744 
									}
								}
							}
						}
					}
				}
			}
		}
	}
	JOINT rButtock
	{
		OFFSET -0.068580 0.033991 0.009525 
		CHANNELS 3 Zrotation Xrotation Yrotation
		JOINT rThigh
		{
			OFFSET 0.000000 -0.013335 -0.017145 
			CHANNELS 3 Zrotation Xrotation Yrotation
			JOINT rShin
			{
				OFFSET 0.000000 -0.287655 0.005715 
				CHANNELS 3 Zrotation Xrotation Yrotation
				JOINT rFoot
				{
					OFFSET 0.005715 -0.352425 -0.040005 
					CHANNELS 3 Zrotation Xrotation Yrotation
					End Site
					{
						OFFSET -0.008766 -0.028903 0.094555 
					}
				}
			}
		}
	}
	JOINT lButtock
	{
		OFFSET 0.068580 0.033991 0.009525 
		CHANNELS 3 Zrotation Xrotation Yrotation
		JOINT lThigh
		{
			OFFSET 0.000000 -0.013335 -0.017145 
			CHANNELS 3 Zrotation Xrotation Yrotation
			JOINT lShin
			{
				OFFSET 0.000000 -0.287655 0.005715 
				CHANNELS 3 Zrotation Xrotation Yrotation
				JOINT lFoot
				{
					OFFSET -0.005715 -0.352425 -0.040005 
					CHANNELS 3 Zrotation Xrotation Yrotation
					End Site
					{
						OFFSET 0.008766 -0.028903 0.094555 
					}
				}
			}
		}
	}
}
MOTION
Frames: 8
Frame Time: 0.008333
0.982562 0.651437 0.108356 164.395996 -85.716202 -156.597000 -0.153605 -2.660190 1.030990 1.823980 -2.353920 0.444036 -3.901890 4.139620 -1.636920 6.470760 -6.011810 -2.081830 -0.000000 0.000000 0.000000 -0.000000 0.000000 0.000000 0.000000 0.000000 -0.000000 24.046400 -2.346440 -2.125270 -4.449200 -2.069230 6.896950 0.012073 2.450640 0.343296 -0.000000 0.000000 -0.000000 -0.000000 0.000000 -0.000000 -0.000000 0.000000 -0.000000 7.730910 5.474880 0.417314 -0.000000 0.000000 -0.000000 2.905540 0.965183 0.102902 -0.000000 0.000000 -0.000000 10.278600 0.731801 0.025912 -0.000000 0.000000 -0.000000 2.221670 -0.733487 -0.208920 0.000000 0.000000 -0.000000 -25.829300 1.224100 3.535130 5.905900 -3.134100 -8.682630 -0.030489 3.875150 -0.540127 0.000000 -0.000000 0.000000 0.000000 -0.000000 0.000000 0.000000 -0.000000 0.000000 -7.730910 5.474880 -0.417314 0.000000 -0.000000 0.000000 -2.905540 0.965183 -0.102902 0.000000 -0.000000 0.000000 -10.278600 0.731801 -0.025912 0.000000 -0.000000 0.000000 -2.221670 -0.733487 0.208920 -0.000000 0.000000 -0.000000 0.930952 -10.138900 -0.630762 0.017428 11.731600 0.162707 -0.904463 -4.757830 -3.193200 0.000000 0.000000 0.000000 0.124656 -7.183840 -0.376543 -0.006323 7.127100 -0.074162 0.386116 -3.204920 -0.343861 
0.982672 0.651409 0.108316 164.768997 -85.724297 -156.906006 -1.453950 -5.464910 2.094570 3.447620 -4.839710 0.857105 -7.783150 8.522520 -3.417720 12.849800 -12.350300 -4.401510 -0.000000 0.000000 0.000000 -0.000000 0.000000 0.000000 0.000000 0.000000 -0.000000 49.273201 -4.775140 -4.390130 -8.624470 -4.163520 14.231200 -0.007376 5.070080 0.712397 -0.000000 0.000000 -0.000000 -0.000000 0.000000 -0.000000 -0.000000 0.000000 -0.000000 7.730910 5.474880 0.417314 -0.000000 0.000000 -0.000000 2.905540 0.965183 0.102902 -0.000000 0.000000 -0.000000 10.278600 0.731801 0.025912 -0.000000 0.000000 -0.000000 2.221670 -0.733487 -0.208920 0.000000 0.000000 -0.000000 -53.298100 2.487830 7.267760 11.122000 -6.201780 -17.934700 0.017403 7.965090 -1.118620 0.000000 -0.000000 0.000000 0.000000 -0.000000 0.000000 0.000000 -0.000000 0.000000 -7.730910 5.474880 -0.417314 0.000000 -0.000000 0.000000 -2.905540 0.965183 -0.102902 0.000000 -0.000000 0.000000 -10.278600 0.731801 -0.025912 0.000000 -0.000000 0.000000 -2.221670 -0.733487 0.208920 -0.000000 0.000000 -0.000000 0.394692 -14.672200 -1.189400 0.002024 18.812500 0.299992 -2.050590 -10.585800 -6.734770 0.000000 0.000000 0.000000 -0.274631 -12.744500 -0.799355 0.031025 16.857201 -0.239924 0.249505 -10.816900 -0.578632 
0.982703 0.651395 0.108220 165.488007 -85.755203 -157.608994 -2.518430 -7.960790 3.054540 4.922560 -7.050930 1.228450 -10.982700 12.377800 -5.014810 18.047701 -17.937700 -6.529820 -0.000000 0.000000 0.000000 -0.000000 0.000000 0.000000 0.000000 0.000000 -0.000000 71.614899 -7.000430 -6.418510 -11.882700 -5.848660 20.790501 -0.052497 7.350850 1.037470 -0.000000 0.000000 -0.000000 -0.000000 0.000000 -0.000000 -0.000000 0.000000 -0.000000 7.730910 5.474880 0.417314 -0.000000 0.000000 -0.000000 2.905540 0.965183 0.102902 -0.000000 0.000000 -0.000000 10.278600 0.731801 0.025912 -0.000000 0.000000 -0.000000 2.221670 -0.733487 -0.208920 0.000000 0.000000 -0.000000 -77.938797 3.616400 10.624400 14.950900 -8.540260 -26.322500 0.131591 11.621300 -1.650520 0.000000 -0.000000 0.000000 0.000000 -0.000000 0.000000 0.000000 -0.000000 0.000000 -7.730910 5.474880 -0.417314 0.000000 -0.000000 0.000000 -2.905540 0.965183 -0.102902 0.000000 -0.000000 0.000000 -10.278600 0.731801 -0.025912 0.000000 -0.000000 0.000000 -2.221670 -0.733487 0.208920 -0.000000 0.000000 -0.000000 -0.159431 -18.717800 -1.708980 -0.043461 25.126301 0.436776 -3.706050 -15.684800 -10.067300 0.000000 0.000000 0.000000 -0.701358 -17.708500 -1.197440 0.117048 25.537901 -0.408766 0.073058 -17.607300 -0.803293 
0.982703 0.651394 0.108080 166.535004 -85.780296 -158.662003 -3.191880 -9.693950 3.730600 5.957340 -8.577020 1.487700 -13.013600 14.956100 -6.048420 21.323000 -21.749201 -7.894510 -0.000000 0.000000 0.000000 -0.000000 0.000000 0.000000 0.000000 0.000000 -0.000000 87.102600 -8.753220 -7.818290 -13.881400 -6.859090 25.315701 -0.095624 8.786060 1.244670 -0.000000 0.000000 -0.000000 -0.000000 0.000000 -0.000000 -0.000000 0.000000 -0.000000 7.730910 5.474880 0.417314 -0.000000 0.000000 -0.000000 2.905540 0.965183 0.102902 -0.000000 0.000000 -0.000000 10.278600 0.731801 0.025912 -0.000000 0.000000 -0.000000 2.221670 -0.733487 -0.208920 0.000000 0.000000 -0.000000 -95.202400 4.458020 13.024100 17.218500 -9.870500 -32.289700 0.253763 14.197000 -2.037550 0.000000 -0.000000 0.000000 0.000000 -0.000000 0.000000 0.000000 -0.000000 0.000000 -7.730910 5.474880 -0.417314 0.000000 -0.000000 0.000000 -2.905540 0.965183 -0.102902 0.000000 -0.000000 0.000000 -10.278600 0.731801 -0.025912 0.000000 -0.000000 0.000000 -2.221670 -0.733487 0.208920 -0.000000 0.000000 -0.000000 -0.583206 -21.549900 -2.077430 -0.095707 29.522499 0.544704 -5.240020 -19.163900 -12.542400 0.000000 0.000000 0.000000 -1.036290 -21.183800 -1.489810 0.212852 31.595600 -0.547116 -0.080355 -22.345100 -0.966226 
0.982852 0.651390 0.107995 167.158997 -85.778900 -159.285004 -3.402830 -10.376000 3.987500 6.342160 -9.141500 1.582790 -13.662800 15.782500 -6.211210 22.422600 -23.173599 -7.955750 -0.000000 0.000000 0.000000 -0.000000 0.000000 0.000000 0.000000 0.000000 -0.000000 93.153999 -9.966030 -8.294900 -14.524800 -7.147740 26.899599 -0.107107 9.030010 1.280420 -0.000000 0.000000 -0.000000 -0.000000 0.000000 -0.000000 -0.000000 0.000000 -0.000000 7.730910 5.474880 0.417314 -0.000000 0.000000 -0.000000 2.905540 0.965183 0.102902 -0.000000 0.000000 -0.000000 10.278600 0.731801 0.025912 -0.000000 0.000000 -0.000000 2.221670 -0.733487 -0.208920 0.000000 0.000000 -0.000000 -102.011002 4.980240 14.095500 18.078100 -10.364400 -34.779202 0.312911 15.238400 -2.197570 0.000000 -0.000000 0.000000 0.000000 -0.000000 0.000000 0.000000 -0.000000 0.000000 -7.730910 5.474880 -0.417314 0.000000 -0.000000 0.000000 -2.905540 0.965183 -0.102902 0.000000 -0.000000 0.000000 -10.278600 0.731801 -0.025912 0.000000 -0.000000 0.000000 -2.221670 -0.733487 0.208920 -0.000000 0.000000 -0.000000 -0.737298 -22.697901 -2.196160 -0.121214 31.233000 0.592441 -5.944570 -20.521900 -13.579000 0.000000 0.000000 0.000000 -1.161660 -22.589899 -1.600290 0.259908 33.985500 -0.608349 -0.138101 -24.210699 -1.010350 
0.983000 0.651367 0.107948 167.470993 -85.724403 -159.554993 -3.304650 -10.308600 3.940140 6.255850 -9.019530 1.559190 -13.367900 15.362800 -5.735980 22.060101 -22.902500 -7.037160 -0.000000 0.000000 0.000000 -0.000000 0.000000 0.000000 0.000000 0.000000 -0.000000 92.513901 -10.797300 -8.103530 -14.286100 -6.983570 26.372200 -0.092149 8.423570 1.192930 -0.000000 0.000000 -0.000000 -0.000000 0.000000 -0.000000 -0.000000 0.000000 -0.000000 7.730910 5.474880 0.417314 -0.000000 0.000000 -0.000000 2.905540 0.965183 0.102902 -0.000000 0.000000 -0.000000 10.278600 0.731801 0.025912 -0.000000 0.000000 -0.000000 2.221670 -0.733487 -0.208920 0.000000 0.000000 -0.000000 -101.317001 5.283840 14.213400 18.092699 -10.422900 -34.754398 0.308797 15.185800 -2.189280 0.000000 -0.000000 0.000000 0.000000 -0.000000 0.000000 0.000000 -0.000000 0.000000 -7.730910 5.474880 -0.417314 0.000000 -0.000000 0.000000 -2.905540 0.965183 -0.102902 0.000000 -0.000000 0.000000 -10.278600 0.731801 -0.025912 0.000000 -0.000000 0.000000 -2.221670 -0.733487 0.208920 -0.000000 0.000000 -0.000000 -0.678977 -22.643299 -2.127070 -0.117751 31.025200 0.590879 -5.892120 -20.410900 -13.514100 0.000000 0.000000 0.000000 -1.118030 -22.518000 -1.571480 0.254137 33.755501 -0.602419 -0.112750 -24.025101 -0.961131 
0.983148 0.651334 0.107896 167.835007 -85.660301 -159.858994 -3.090180 -9.925330 3.777840 5.986180 -8.628300 1.491120 -12.658600 14.429300 -5.026270 21.035999 -21.896700 -5.786250 -0.000000 0.000000 0.000000 -0.000000 0.000000 0.000000 0.000000 0.000000 -0.000000 89.215599 -11.323800 -7.668880 -13.713300 -6.654070 25.062599 -0.070383 7.489970 1.058810 0.000000 -0.000000 0.000000 0.000000 -0.000000 0.000000 0.000000 -0.000000 0.000000 7.730910 5.474880 0.417314 0.000000 -0.000000 0.000000 2.905540 0.965183 0.102902 0.000000 -0.000000 0.000000 10.278600 0.731801 0.025912 0.000000 -0.000000 0.000000 2.221670 -0.733487 -0.208920 0.000000 0.000000 -0.000000 -97.600502 5.427610 13.912500 17.747601 -10.284500 -33.651901 0.280388 14.735000 -2.119400 -0.000000 -0.000000 -0.000000 -0.000000 -0.000000 -0.000000 -0.000000 -0.000000 -0.000000 -7.730910 5.474880 -0.417314 -0.000000 -0.000000 -0.000000 -2.905540 0.965183 -0.102902 -0.000000 -0.000000 -0.000000 -10.278600 0.731801 -0.025912 -0.000000 -0.000000 -0.000000 -2.221670 -0.733487 0.208920 -0.000000 0.000000 -0.000000 -0.542278 -22.089399 -1.989260 -0.102611 30.052700 0.569216 -5.531590 -19.717600 -12.997200 0.000000 0.000000 0.000000 -1.012040 -21.834400 -1.490950 0.227241 32.471298 -0.569407 -0.058501 -23.018000 -0.880909 
0.983219 0.651319 0.107887 167.869003 -85.600403 -159.867004 -2.951720 -9.659610 3.690160 5.820550 -8.385040 1.452770 -12.092200 13.719900 -4.476990 20.211500 -21.136200 -4.827520 -0.000000 0.000000 0.000000 -0.000000 0.000000 0.000000 0.000000 0.000000 -0.000000 87.264297 -11.619200 -7.421840 -13.371000 -6.457940 24.296900 -0.056253 6.752620 0.953482 0.000000 -0.000000 0.000000 0.000000 -0.000000 0.000000 0.000000 -0.000000 0.000000 7.730910 5.474880 0.417314 0.000000 -0.000000 0.000000 2.905540 0.965183 0.102902 0.000000 -0.000000 0.000000 10.278600 0.731801 0.025912 0.000000 -0.000000 0.000000 2.221670 -0.733487 -0.208920 0.000000 0.000000 -0.000000 -95.361397 5.465420 13.729400 17.502501 -10.161600 -32.913399 0.268084 14.581500 -2.095180 -0.000000 -0.000000 -0.000000 -0.000000 -0.000000 -0.000000 -0.000000 -0.000000 -0.000000 -7.730910 5.474880 -0.417314 -0.000000 -0.000000 -0.000000 -2.905540 0.965183 -0.102902 -0.000000 -0.000000 -0.000000 -10.278600 0.731801 -0.025912 -0.000000 -0.000000 -0.000000 -2.221670 -0.733487 0.208920 -0.000000 0.000000 -0.000000 -0.460051 -21.739599 -1.901640 -0.093832 29.468700 0.557083 -5.324270 -19.325001 -12.683800 0.000000 0.000000 0.000000 -0.950715 -21.405399 -1.446670 0.212019 31.698700 -0.550153 -0.026512 -22.419001 -0.830957 
